<!DOCTYPE svg PUBLIC "-//W3C//DTD SVG 1.1//EN" "http://www.w3.org/Graphics/SVG/1.1/DTD/svg11.dtd">
<!-- Uploaded to: SVG Repo, www.svgrepo.com, Transformed by: SVG Repo Mixer Tools -->
<svg height="256px" width="256px" version="1.1" id="Layer_1" xmlns="http://www.w3.org/2000/svg" xmlns:xlink="http://www.w3.org/1999/xlink" viewBox="-30.72 -30.72 573.44 573.44" xml:space="preserve" fill="#000000" stroke="#000000" stroke-width="0.0051199800000000005">
<g id="SVGRepo_bgCarrier" stroke-width="0"/>
<g id="SVGRepo_tracerCarrier" stroke-linecap="round" stroke-linejoin="round" stroke="#CCCCCC" stroke-width="1.023996"/>
<g id="SVGRepo_iconCarrier"> <path style="fill:#ffffff;" d="M501.374,511.998H53.295V405.297h85.358v-42.672h85.342v-42.671h85.35v-42.671h85.343v-42.671 h106.686L501.374,511.998L501.374,511.998z"/> <g> <path style="fill:#434A54;" d="M448.03,255.939c-5.875,0-10.656-4.781-10.656-10.672V21.225c0-5.89,4.781-10.656,10.656-10.656 c5.906,0,10.688,4.766,10.688,10.656v224.043C458.718,251.158,453.937,255.939,448.03,255.939z"/> <path style="fill:#434A54;" d="M362.688,298.611c-5.875,0-10.656-4.766-10.656-10.656V63.912c0-5.906,4.781-10.671,10.656-10.671 c5.906,0,10.688,4.766,10.688,10.671v224.043C373.376,293.846,368.595,298.611,362.688,298.611z"/> <path style="fill:#434A54;" d="M277.347,341.298c-5.898,0-10.664-4.781-10.664-10.672V106.583c0-5.891,4.766-10.672,10.664-10.672 c5.906,0,10.655,4.781,10.655,10.672v224.043C288.002,336.517,283.253,341.298,277.347,341.298z"/> <path style="fill:#434A54;" d="M191.996,383.969c-5.891,0-10.672-4.781-10.672-10.672V149.254c0-5.891,4.781-10.672,10.672-10.672 s10.671,4.781,10.671,10.672v224.043C202.667,379.187,197.887,383.969,191.996,383.969z"/> <path style="fill:#434A54;" d="M106.638,426.64c-5.891,0-10.656-4.78-10.656-10.671V191.925c0-5.89,4.766-10.656,10.656-10.656 c5.906,0,10.671,4.766,10.671,10.656v224.044C117.31,421.859,112.544,426.64,106.638,426.64z"/> </g> <path style="fill:#656D78;" d="M61.279,289.408c-9.656,0-22.031-1.953-32.296-9.906c-12.187-9.438-18.359-24.547-18.359-44.89 c0-4.047,2.281-7.75,5.906-9.546L464.405,1.131c5.25-2.64,11.656-0.5,14.312,4.766c2.625,5.266,0.5,11.687-4.781,14.312 L32.249,241.049c0.953,9.984,4.203,17.218,9.734,21.531c11.359,8.875,29.843,4.406,30.031,4.359 c5.703-1.484,11.5,1.953,12.984,7.672c1.468,5.703-1.984,11.531-7.688,13C76.748,287.752,70.154,289.408,61.279,289.408z"/> <g> <path style="fill:#ffffff;" d="M138.653,426.64H53.295c-5.891,0-10.656-4.78-10.656-10.671s4.766-10.672,10.656-10.672h85.358 L138.653,426.64L138.653,426.64z"/> <path style="fill:#ffffff;" d="M223.996,383.969h-85.342c-5.891,0-10.672-4.781-10.672-10.672s4.781-10.672,10.672-10.672h85.342 L223.996,383.969L223.996,383.969z"/> <path style="fill:#ffffff;" d="M309.346,341.298h-85.35c-5.891,0-10.656-4.781-10.656-10.672s4.766-10.672,10.656-10.672h85.35 V341.298z"/> <path style="fill:#ffffff;" d="M394.688,298.611h-85.343c-5.875,0-10.656-4.766-10.656-10.656c0-5.906,4.781-10.672,10.656-10.672 h85.343L394.688,298.611L394.688,298.611z"/> <path style="fill:#ffffff;" d="M501.374,255.939H394.688c-5.875,0-10.656-4.781-10.656-10.672c0-5.89,4.781-10.656,10.656-10.656 h106.686V255.939z"/> </g> </g>
</svg>