<?xml version="1.0" encoding="iso-8859-1"?>
<!-- Uploaded to: SVG Repo, www.svgrepo.com, Generator: SVG Repo Mixer Tools -->
<svg version="1.1" id="Layer_1" xmlns="http://www.w3.org/2000/svg" xmlns:xlink="http://www.w3.org/1999/xlink" 
	 viewBox="0 0 512 512" xml:space="preserve">
<g>
	<polygon style="fill:#ED732F;" points="380.628,276.898 444.016,276.898 444.016,377.208 291.809,377.208 216.228,377.208 
		92.931,377.208 42.776,327.053 92.931,276.898 215.184,276.898 	"/>
	<polygon style="fill:#ED732F;" points="129.217,222.563 65.829,222.563 65.829,122.253 218.036,122.253 293.616,122.253 
		416.914,122.253 467.069,172.408 416.914,222.563 294.661,222.563 	"/>
</g>
<path style="fill:#FFE48D;" d="M220.473,501.551V20.898c0-5.771,4.678-10.449,10.449-10.449h50.155
	c5.771,0,10.449,4.678,10.449,10.449v480.653H220.473z"/>
<rect x="220.473" y="10.449" style="fill:#FF9D3B;" width="71.053" height="44.931"/>
<path d="M348.978,366.759h-0.137c-5.77,0-10.449,4.678-10.449,10.449c0,5.771,4.679,10.449,10.449,10.449h0.137
	c5.77,0,10.449-4.678,10.449-10.449C359.427,371.437,354.749,366.759,348.978,366.759z"/>
<path d="M416.914,233.012c2.771,0,5.428-1.101,7.388-3.061l50.155-50.155c4.08-4.08,4.08-10.697,0-14.778l-50.155-50.155
	c-1.96-1.958-4.617-3.059-7.388-3.059H301.975V20.898C301.975,9.375,292.601,0,281.078,0h-50.155
	c-11.523,0-20.898,9.375-20.898,20.898v90.906H65.829c-5.77,0-10.449,4.678-10.449,10.449v100.31
	c0,5.771,4.679,10.449,10.449,10.449h63.389c5.77,0,10.449-4.678,10.449-10.449c0-5.771-4.679-10.449-10.449-10.449h-52.94v-79.412
	h133.747v79.412h-14.102c-5.77,0-10.449,4.678-10.449,10.449c0,5.771,4.679,10.449,10.449,10.449h14.102v33.437H95.086
	c-2.771,0-5.428,1.101-7.388,3.06l-50.155,50.155c-4.08,4.08-4.08,10.697,0,14.778l50.155,50.155
	c1.96,1.958,4.617,3.059,7.388,3.059h114.939v113.894c0,5.771,4.679,10.449,10.449,10.449h71.053c5.77,0,10.449-4.678,10.449-10.449
	V387.657h14.102c5.77,0,10.449-4.678,10.449-10.449c0-5.771-4.679-10.449-10.449-10.449h-14.102v-79.412h133.747v79.412h-52.94
	c-5.77,0-10.449,4.678-10.449,10.449c0,5.771,4.679,10.449,10.449,10.449h63.389c5.77,0,10.449-4.678,10.449-10.449v-100.31
	c0-5.771-4.679-10.449-10.449-10.449H301.975v-33.437H416.914z M99.415,366.759l-39.706-39.706l39.706-39.706h110.61v79.412H99.415z
	 M281.078,491.102h-50.155V65.829h29.954c5.77,0,10.449-4.678,10.449-10.449s-4.679-10.449-10.449-10.449h-29.954V20.898h50.155
	V491.102z M412.585,132.702l39.706,39.706l-39.706,39.706h-110.61v-79.412H412.585z"/>
<path d="M163.158,233.012c5.77,0,10.449-4.678,10.449-10.449c0-5.771-4.679-10.449-10.449-10.449h-0.137
	c-5.77,0-10.449,4.678-10.449,10.449c0,5.771,4.679,10.449,10.449,10.449H163.158z"/>
</svg>