<?xml version="1.0" encoding="iso-8859-1"?>
<!-- Uploaded to: SVG Repo, www.svgrepo.com, Generator: SVG Repo Mixer Tools -->
<svg version="1.1" id="Layer_1" xmlns="http://www.w3.org/2000/svg" xmlns:xlink="http://www.w3.org/1999/xlink" 
	 viewBox="0 0 512 512" xml:space="preserve">
<g>
	<rect x="13.31" y="325.569" style="fill:#C5824B;" width="485.39" height="44.927"/>
	<path style="fill:#C5824B;" d="M473.519,370.503H38.482l16.004,109.822c1.791,12.289,13.391,21.475,27.117,21.475H430.4
		c13.725,0,25.326-9.186,27.116-21.475L473.519,370.503z"/>
</g>
<g>
	<path style="fill:#ADDE52;" d="M141.885,277.233h-25.638c-38.297,0-69.342-31.045-69.342-69.342v-25.638h25.638
		c38.297,0,69.342,31.045,69.342,69.342V277.233z"/>
	<path style="fill:#ADDE52;" d="M141.885,277.233h25.638c38.297,0,69.342-31.045,69.342-69.342v-25.638h-25.638
		c-38.297,0-69.342,31.045-69.342,69.342V277.233z"/>
</g>
<g>
	<path style="fill:#EAE8E8;" d="M141.773,77.042H123.73c-26.951,0-48.8-21.849-48.8-48.8V10.199h18.042
		c26.951,0,48.8,21.849,48.8,48.8V77.042z"/>
	<path style="fill:#EAE8E8;" d="M141.997,77.042h18.042c26.951,0,48.8-21.849,48.8-48.8V10.199h-18.042
		c-26.951,0-48.8,21.849-48.8,48.8V77.042z"/>
	<path style="fill:#EAE8E8;" d="M141.997,77.267h18.042c26.951,0,48.8,21.849,48.8,48.8v18.042h-18.042
		c-26.951,0-48.8-21.849-48.8-48.8V77.267z"/>
	<path style="fill:#EAE8E8;" d="M141.773,77.267H123.73c-26.951,0-48.8,21.849-48.8,48.8v18.042h18.042
		c26.951,0,48.8-21.849,48.8-48.8V77.267z"/>
</g>
<circle style="fill:#FFBA7A;" cx="141.769" cy="77.045" r="21.292"/>
<g>
	<path style="fill:#ADDE52;" d="M370.116,277.233h-25.638c-38.297,0-69.342-31.045-69.342-69.342v-25.638h25.638
		c38.297,0,69.342,31.045,69.342,69.342V277.233z"/>
	<path style="fill:#ADDE52;" d="M370.116,277.233h25.638c38.297,0,69.342-31.045,69.342-69.342v-25.638h-25.638
		c-38.297,0-69.342,31.045-69.342,69.342V277.233z"/>
</g>
<g>
	<path style="fill:#EAE8E8;" d="M370.004,77.042h-18.042c-26.951,0-48.8-21.849-48.8-48.8V10.199h18.042
		c26.951,0,48.8,21.849,48.8,48.8L370.004,77.042L370.004,77.042z"/>
	<path style="fill:#EAE8E8;" d="M370.229,77.042h18.042c26.951,0,48.8-21.849,48.8-48.8V10.199h-18.042
		c-26.951,0-48.8,21.849-48.8,48.8V77.042z"/>
	<path style="fill:#EAE8E8;" d="M370.229,77.267h18.042c26.951,0,48.8,21.849,48.8,48.8v18.042h-18.042
		c-26.951,0-48.8-21.849-48.8-48.8V77.267z"/>
	<path style="fill:#EAE8E8;" d="M370.004,77.267h-18.042c-26.951,0-48.8,21.849-48.8,48.8v18.042h18.042
		c26.951,0,48.8-21.849,48.8-48.8L370.004,77.267L370.004,77.267z"/>
</g>
<circle style="fill:#FFBA7A;" cx="370.007" cy="77.045" r="21.292"/>
<g>
	<path style="fill:#5E282D;" d="M498.695,315.371H380.316v-27.939h15.44c43.86,0,79.542-35.682,79.542-79.542v-25.638
		c0-5.633-4.567-10.199-10.199-10.199h-25.639c-23.459,0-44.572,10.214-59.143,26.422v-59.178
		c10.48,9.337,24.251,15.012,39.188,15.012h18.042c5.632,0,10.199-4.566,10.199-10.199v-18.042c0-14.881-5.557-29.093-15.648-40.02
		c-3.125-3.384-6.599-6.36-10.345-8.893c3.745-2.532,7.219-5.509,10.345-8.893c10.091-10.928,15.648-25.141,15.648-40.022V10.199
		C447.746,4.566,443.178,0,437.546,0h-18.042c-20.199,0-38.269,10.248-48.938,26.051C359.847,10.27,341.721,0,321.678,0h-18.042
		c-5.632,0-10.199,4.566-10.199,10.199v18.042c0,20.257,10.205,38.279,25.978,48.925c-3.776,2.555-7.276,5.559-10.421,8.978
		c-10.033,10.912-15.558,25.09-15.558,39.923v18.042c0,5.633,4.567,10.199,10.199,10.199h18.042
		c14.512,0,27.895-5.268,38.239-14.066v58.231c-14.572-16.208-35.684-26.422-59.143-26.422h-25.638
		c-5.632,0-10.199,4.566-10.199,10.199v25.638c0,43.86,35.682,79.542,79.542,79.542h15.439v27.939H152.084v-27.939h15.439
		c43.86,0,79.542-35.682,79.542-79.542v-25.638c0-5.633-4.567-10.199-10.199-10.199h-25.638c-23.459,0-44.572,10.215-59.143,26.422
		v-58.756c10.42,9.086,24.001,14.591,38.713,14.591h18.042c5.632,0,10.199-4.566,10.199-10.199v-18.042
		c0-14.881-5.557-29.093-15.648-40.02c-3.125-3.384-6.599-6.36-10.344-8.893c3.745-2.532,7.219-5.509,10.344-8.893
		c10.091-10.926,15.648-25.139,15.648-40.02V10.199C219.039,4.566,214.471,0,208.839,0h-18.042c-20.2,0-38.269,10.248-48.938,26.051
		C131.141,10.27,113.014,0,92.971,0H74.929C69.297,0,64.73,4.566,64.73,10.199v18.042c0,20.257,10.205,38.279,25.978,48.925
		c-3.776,2.555-7.276,5.559-10.421,8.978c-10.033,10.912-15.558,25.09-15.558,39.923v18.042c0,5.633,4.567,10.199,10.199,10.199
		h18.042c14.735,0,28.306-5.428,38.714-14.471v58.636c-14.572-16.208-35.684-26.422-59.143-26.422H46.904
		c-5.632,0-10.199,4.566-10.199,10.199v25.638c0,43.86,35.682,79.542,79.542,79.542h15.44v27.939H13.306
		c-5.632,0-10.199,4.566-10.199,10.199v44.933c0,5.633,4.567,10.199,10.199,10.199h16.354l14.732,101.093
		C46.902,499.015,62.899,512,81.602,512h348.796c18.703,0,34.7-12.985,37.209-30.204l14.732-101.094h16.354
		c5.632,0,10.199-4.566,10.199-10.199v-44.933C508.894,319.937,504.328,315.371,498.695,315.371z M439.459,192.452h15.44v15.439
		c0,32.612-26.532,59.143-59.143,59.143h-1.015l21.542-21.542c3.983-3.983,3.983-10.441,0-14.425c-3.984-3.983-10.44-3.983-14.425,0
		l-21.542,21.542v-1.015C380.316,218.983,406.847,192.452,439.459,192.452z M370.478,65.95c6.115,0,11.092,4.976,11.092,11.093
		s-4.976,11.092-11.092,11.092c-6.116,0-11.093-4.976-11.093-11.092C359.386,70.926,364.362,65.95,370.478,65.95z M427.347,133.91
		h-7.843c-17.355,0-32.313-11.684-37.039-27.754c7.738-3.197,13.931-9.39,17.129-17.129c16.049,4.742,27.754,19.755,27.754,37.039
		V133.91z M419.504,20.398h7.843v7.843c0,17.255-11.667,32.248-27.676,37.014c-3.166-7.815-9.377-14.079-17.158-17.309
		C387.297,31.869,402.208,20.398,419.504,20.398z M313.834,20.398h7.843c17.14,0,32.132,11.474,36.964,27.471
		c-7.861,3.202-14.144,9.487-17.342,17.349c-16.055-4.796-27.465-19.639-27.465-36.976L313.834,20.398L313.834,20.398z
		 M321.678,133.91h-7.843v-7.843c0-17.499,11.41-32.271,27.541-37.009c3.23,7.795,9.504,14.016,17.332,17.184
		C353.97,122.394,339.057,133.91,321.678,133.91z M285.335,207.89v-15.439h15.439c32.612,0,59.143,26.531,59.143,59.143v1.015
		l-47.629-47.63c-3.983-3.983-10.441-3.983-14.425,0c-3.983,3.983-3.983,10.441,0,14.424l47.63,47.63h-1.015
		C311.867,267.034,285.335,240.502,285.335,207.89z M211.228,192.452h15.439v15.439c0,32.612-26.532,59.143-59.143,59.143h-1.015
		l47.63-47.63c3.983-3.983,3.983-10.441,0-14.424c-3.984-3.983-10.44-3.983-14.425,0l-47.629,47.63v-1.015
		C152.084,218.983,178.616,192.452,211.228,192.452z M141.773,65.95c6.115,0,11.092,4.976,11.092,11.093
		s-4.976,11.092-11.092,11.092c-6.116,0-11.093-4.976-11.093-11.092C130.68,70.926,135.656,65.95,141.773,65.95z M198.641,133.91
		h-7.843c-17.355,0-32.313-11.683-37.039-27.754c7.738-3.197,13.931-9.39,17.129-17.129c16.049,4.741,27.754,19.755,27.754,37.038
		L198.641,133.91L198.641,133.91z M190.797,20.398h7.843v7.843c0,17.255-11.667,32.248-27.676,37.014
		c-3.166-7.815-9.377-14.079-17.158-17.309C158.591,31.869,173.501,20.398,190.797,20.398z M85.128,20.398h7.843
		c17.14,0,32.132,11.474,36.964,27.471c-7.861,3.202-14.144,9.487-17.342,17.349c-16.055-4.796-27.465-19.639-27.465-36.976V20.398z
		 M92.971,133.91h-7.843v-7.843c0-17.499,11.41-32.271,27.541-37.009c3.23,7.795,9.504,14.016,17.332,17.184
		C125.264,122.394,110.35,133.91,92.971,133.91z M57.103,207.89v-15.439h15.44c32.612,0,59.143,26.531,59.143,59.143v1.015
		l-47.63-47.63c-3.984-3.983-10.44-3.983-14.425,0c-3.983,3.983-3.983,10.441,0,14.424l47.63,47.63h-1.015
		C83.635,267.034,57.103,240.502,57.103,207.89z M447.423,478.855c-1.059,7.267-8.378,12.747-17.025,12.747H81.602
		c-8.647,0-15.965-5.48-17.023-12.747l-14.303-98.152h411.452L447.423,478.855z M23.506,360.304V335.77h464.99v24.534H23.506z"/>
	<path style="fill:#5E282D;" d="M432.553,224.996c2.611,0,5.22-0.996,7.212-2.987l2.606-2.606c3.983-3.983,3.983-10.441,0-14.425
		c-3.984-3.982-10.44-3.982-14.425,0l-2.606,2.606c-3.983,3.983-3.983,10.441,0,14.425C427.332,224,429.942,224.996,432.553,224.996
		z"/>
</g>
</svg>