<!DOCTYPE svg PUBLIC "-//W3C//DTD SVG 1.1//EN" "http://www.w3.org/Graphics/SVG/1.1/DTD/svg11.dtd">
<!-- Uploaded to: SVG Repo, www.svgrepo.com, Transformed by: SVG Repo Mixer Tools -->
<svg version="1.1" id="_x34_" xmlns="http://www.w3.org/2000/svg" xmlns:xlink="http://www.w3.org/1999/xlink" viewBox="0 0 512 512" xml:space="preserve" width="800px" height="800px" fill="#000000">
<g id="SVGRepo_bgCarrier" stroke-width="0"/>
<g id="SVGRepo_tracerCarrier" stroke-linecap="round" stroke-linejoin="round"/>
<g id="SVGRepo_iconCarrier"> <g> <g> <g> <g> <path style="fill:#E0D6C4;" d="M284.082,31.115c-0.078-0.155-0.078-0.31-0.078-0.466c0-0.156-0.078-0.389-0.078-0.623 c-2.1-15.402-14.313-27.614-29.715-29.715c-0.389-0.078-0.778-0.078-1.089-0.156C252.189,0.078,251.178,0,250.166,0h-70.087 c-17.813,0-32.437,13.458-34.46,30.649c0,0.156,0,0.311-0.078,0.466c-0.078,1.011-0.156,2.023-0.156,3.112v44.572h138.852 V34.227C284.237,33.138,284.16,32.126,284.082,31.115z M180.079,27.382h69.465c3.967,0,7.312,3.267,7.312,7.313v16.724h-84.089 V34.694C172.767,30.649,176.034,27.382,180.079,27.382z"/> </g> <g style="opacity:0.06;"> <path style="fill:#040000;" d="M284.082,31.115v-0.466h-0.078c-8.479,1.477-17.424,2.567-26.603,3.422 c-0.156,0.078-0.389,0.078-0.545,0.078c0,0,0,0,0,0.078v16.724h-84.089V34.227c0-0.078,0-0.078,0-0.078 c-9.413-0.855-18.436-2.022-27.148-3.5h-0.078v0.466c-0.078,1.011-0.156,2.023-0.156,3.112v44.105h138.852V34.227 C284.237,33.138,284.16,32.126,284.082,31.115z"/> </g> </g> <path style="fill:#d2ba84;" d="M406.598,147.564l-0.156,4.978L394.93,448.214c0,34.148-10.89,61.997-37.572,63.71 C356.736,512,356.036,512,355.336,512H74.832c-2.879,0-5.601-0.311-8.168-0.855c-12.99-2.879-21.625-12.758-26.603-26.603 c-3.656-10.346-5.367-22.871-5.367-36.328l-11.668-300.65H406.598z"/> <path style="fill:#d2ba84;" d="M414.921,133.329H14.702c0-4.201,0.312-8.324,1.011-12.369c0.778-4.9,2.1-9.644,3.812-14.156 c0.467-1.168,0.933-2.334,1.478-3.502c3.734-8.633,9.102-16.412,15.636-23.025C47.451,69.465,61.531,61.92,77.321,59.352 c3.967-0.699,8.09-1.01,12.291-1.01h251.566c1.322,0,2.645,0.076,3.967,0.156c0.855,0.076,1.633,0.156,2.411,0.232 c27.459,2.801,50.484,20.303,61.063,44.572c0.545,1.168,1.011,2.334,1.4,3.502C413.21,115.05,414.921,123.994,414.921,133.329z"/> <rect y="103.302" style="fill:#F0EDD6;" width="429.545" height="31.351"/> <rect y="103.302" style="fill:#FBF3E3;" width="429.545" height="3.502"/> <g> <path style="fill:#787878;" d="M96.597,198.41l30.327-0.958c5.168-0.163,9.47,4.138,9.573,9.573l4.59,242.725 c0.101,5.357-3.92,9.8-9.015,9.961l-30.327,0.958c-5.169,0.163-9.47-4.138-9.573-9.573l-4.59-242.725 C87.481,203.014,91.502,198.571,96.597,198.41z"/> <path style="fill:#787878;" d="M332.993,198.41l-30.327-0.958c-5.169-0.163-9.47,4.138-9.573,9.573l-4.59,242.725 c-0.101,5.357,3.92,9.8,9.015,9.961l30.327,0.958c5.169,0.163,9.47-4.138,9.573-9.573l4.59-242.725 C342.109,203.014,338.088,198.571,332.993,198.41z"/> <path style="fill:#787878;" d="M230.476,197.889h-30.711c-5.03,0-9.108,4.078-9.108,9.107v244.128 c0,5.029,4.078,9.107,9.108,9.107h30.711c5.03,0,9.108-4.078,9.108-9.107V206.996 C239.584,201.967,235.506,197.889,230.476,197.889z"/> </g> </g> <g style="opacity:0.1;"> <path style="fill:#040000;" d="M407.22,147.564l-0.234,5.523l-11.435,295.127c0,34.384-10.968,62.386-38.194,63.71 C356.736,512,356.036,512,355.336,512H214.228V147.564H407.22z"/> <path style="fill:#040000;" d="M430.246,103.302v31.351H214.228V50.951h43.25V34.694c0-0.234,0-0.389-0.078-0.623 c-0.233-3.734-3.423-6.69-7.234-6.69h-35.938V0h35.938c1.011,0,2.022,0.078,2.956,0.156c0.389,0,0.7,0,1.011,0.078 c0.078,0,0.078,0.078,0.078,0.078c15.869,1.789,28.315,14.468,30.259,30.26v0.078h0.078c0.078,0,0.078,0,0.156,0 c0,0.078,0,0.078,0,0.156c0.078,1.088,0.156,2.255,0.156,3.422v0.389c0,0.078,0,0.078,0,0.078v23.648h56.318 c1.322,0,2.645,0.076,3.967,0.156c0.855,0.076,1.633,0.156,2.411,0.232c27.693,2.49,51.029,20.148,61.686,44.572H430.246z"/> </g> </g> </g>
</svg>