<?xml version="1.0" encoding="iso-8859-1"?>
<!-- Uploaded to: SVG Repo, www.svgrepo.com, Generator: SVG Repo Mixer Tools -->
<svg version="1.1" id="Layer_1" xmlns="http://www.w3.org/2000/svg" xmlns:xlink="http://www.w3.org/1999/xlink" 
	 viewBox="0 0 512 512" xml:space="preserve">
<path style="fill:#616F6D;" d="M499.911,178.087C466.946,74.803,370.215,0,256,0C114.616,0,0,114.616,0,256
	c0,122.034,85.395,224.112,199.684,249.77L499.911,178.087z"/>
<path style="fill:#394B48;" d="M499.911,333.913V199.471L368.656,68.215l-33.198,33.504l-62.762-62.762L256,91.826l-112.654,23.611
	l78.996,78.996L66.783,372.87l132.902,132.902C217.806,509.84,236.65,512,256,512C370.216,512,466.946,437.197,499.911,333.913z"/>
<polygon style="fill:#D8F4F2;" points="89.043,317.217 100.174,372.87 133.565,372.87 133.565,339.478 "/>
<polygon style="fill:#FFFFFF;" points="66.783,339.478 66.783,372.87 100.174,372.87 100.174,317.217 "/>
<polygon style="fill:#02C8A7;" points="256,38.957 244.87,172.522 272.696,172.522 272.696,38.957 "/>
<rect x="239.304" y="38.957" style="fill:#7DDCD4;" width="16.696" height="133.565"/>
<rect x="189.217" y="75.13" style="fill:#D8F4F2;" width="66.783" height="33.391"/>
<g>
	<rect x="256" y="75.13" style="fill:#02C8A7;" width="66.783" height="33.391"/>
	<circle style="fill:#02C8A7;" cx="345.043" cy="91.826" r="33.391"/>
</g>
<circle style="fill:#D8F4F2;" cx="166.957" cy="91.826" r="33.391"/>
<circle style="fill:#7DDCD4;" cx="256" cy="91.826" r="33.391"/>
<polygon style="fill:#B1EAE5;" points="256,155.826 233.739,233.739 283.826,233.739 283.826,155.826 "/>
<rect x="228.174" y="155.826" style="fill:#D8F4F2;" width="27.826" height="77.913"/>
<rect x="255.51" y="222.609" style="fill:#7DDCD4;" width="211.968" height="66.783"/>
<path style="fill:#B1EAE5;" d="M133.565,339.478H66.783v-27.826c0-49.099,39.945-89.043,89.043-89.043h83.478v66.783h-83.478
	c-12.275,0-22.261,9.986-22.261,22.261V339.478z"/>
<path style="fill:#7DDCD4;" d="M256,178.087L211.478,256L256,333.913c43.03,0,77.913-34.883,77.913-77.913
	S299.03,178.087,256,178.087z"/>
<path style="fill:#B1EAE5;" d="M178.087,256c0,43.03,34.883,77.913,77.913,77.913V178.087
	C212.97,178.087,178.087,212.97,178.087,256z"/>
<path style="fill:#02C8A7;" d="M499.911,178.087h-10.172c-24.588,0-44.522,19.932-44.522,44.522v66.783
	c0,24.589,19.933,44.522,44.522,44.522h10.172C507.753,309.344,512,283.169,512,256S507.753,202.656,499.911,178.087z"/>
</svg>