<?xml version="1.0" encoding="iso-8859-1"?>
<!-- Uploaded to: SVG Repo, www.svgrepo.com, Generator: SVG Repo Mixer Tools -->
<svg height="800px" width="800px" version="1.1" id="Layer_1" xmlns="http://www.w3.org/2000/svg" xmlns:xlink="http://www.w3.org/1999/xlink" 
	 viewBox="0 0 512 512" xml:space="preserve">
<path style="fill:#AEADB3;" d="M331.331,132.744v10.25h-31.347v-10.25c0-27.021-21.995-49.016-49.016-49.016
	c-27.031,0-49.027,21.995-49.027,49.016v236.105h-31.347V31.347h-20.376V0h72.098v31.347h-20.376V69.13
	c13.584-10.491,30.584-16.75,49.027-16.75C295.282,52.381,331.331,88.43,331.331,132.744z"/>
<path style="fill:#8B8892;" d="M331.331,132.744v10.25h-31.347v-10.25c0-27.021-21.995-49.016-49.016-49.016
	c-27.031,0-49.027,21.995-49.027,49.016v236.105h-15.339V0h35.715v31.347h-20.376V69.13c13.584-10.491,30.584-16.75,49.027-16.75
	C295.282,52.381,331.331,88.43,331.331,132.744z"/>
<path style="fill:#FFC473;" d="M386.073,196.681c0,0.366-0.01,0.731-0.021,1.097v0.146l-0.282,15.391l-15.391-0.01h-39.048v17.732
	h-31.347v-17.732h-54.45l-0.272-15.527c-0.01-0.366-0.021-0.731-0.021-1.097c0-38.828,31.587-70.416,70.416-70.416
	S386.073,157.853,386.073,196.681z"/>
<polygon style="fill:#0082D2;" points="246.613,480.653 246.613,512 125.927,512 125.927,480.653 133.44,480.653 145.456,361.733 
	227.083,361.733 239.1,480.653 "/>
<polygon style="fill:#005C94;" points="246.613,480.653 246.613,512 186.604,512 186.604,361.733 227.083,361.733 239.1,480.653 "/>
<path style="fill:#FFA91F;" d="M386.073,196.681c0,0.366-0.01,0.731-0.021,1.097v0.146l-0.282,15.391l-15.391-0.01h-39.048v17.732
	h-15.673V126.265C354.486,126.265,386.073,157.853,386.073,196.681z"/>
</svg>